PathFileType	4	(X/Y/Z)	C:\Users\dbl\Desktop\20210112(1)\20210112\bx_y_0_501.trc
DataRate	CameraRate	NumFrames	NumMarkers	Units	OrigDataRate	OrigDataStartFrame	OrigNumFrames
50.00	50.00	       6	43	mm	50.00	76	       603
Frame#	Time	Top.Head			R.Acromium			L.Acromium			Sternum			R.ASIS			L.ASIS			V.Sacral			R.Thigh.Upper			R.Thigh.Front			R.Thigh.Rear			R.Knee.Lat			R.Knee.Med			R.Shank.Upper			R.Shank.Front			R.Shank.Rear			R.Ankle.Lat			R.Midfoot.Lat			R.Toe.Lat			R.Toe.Tip			R.Toe.Med			R.Ankle.Med			R.Midfoot.Sup			R.Heel			L.Thigh.Upper			L.Thigh.Front			L.Thigh.Rear			L.Knee.Lat			L.Knee.Med			L.Shank.Upper			L.Shank.Front			L.Shank.Rear			L.Ankle.Lat			L.Midfoot.Lat			L.Toe.Lat			L.Toe.Tip			L.Toe.Med			L.Ankle.Med			L.Midfoot.Sup			L.Heel			origin1 front left			origin2 front right			origin 3 back right			origin 4 back leftt			
		X1	Y1	Z1	X2	Y2	Z2	X3	Y3	Z3	X4	Y4	Z4	X5	Y5	Z5	X6	Y6	Z6	X7	Y7	Z7	X8	Y8	Z8	X9	Y9	Z9	X10	Y10	Z10	X11	Y11	Z11	X12	Y12	Z12	X13	Y13	Z13	X14	Y14	Z14	X15	Y15	Z15	X16	Y16	Z16	X17	Y17	Z17	X18	Y18	Z18	X19	Y19	Z19	X20	Y20	Z20	X21	Y21	Z21	X22	Y22	Z22	X23	Y23	Z23	X24	Y24	Z24	X25	Y25	Z25	X26	Y26	Z26	X27	Y27	Z27	X28	Y28	Z28	X29	Y29	Z29	X30	Y30	Z30	X31	Y31	Z31	X32	Y32	Z32	X33	Y33	Z33	X34	Y34	Z34	X35	Y35	Z35	X36	Y36	Z36	X37	Y37	Z37	X38	Y38	Z38	X39	Y39	Z39	X40	Y40	Z40	X41	Y41	Z41	X42	Y42	Z42	X43	Y43	Z43	

76	1.500	-681.12286	122.01574	1851.56702	-696.41064	-67.32883	1545.88696	-719.65851	292.54016	1536.12073	-618.77106	111.67982	1435.73230	-589.79303	-1.16653	1050.18042	-581.48712	223.67412	1068.61279	-787.39734	98.33340	1057.32922	-652.06262	-66.80459	863.17358	-584.28888	-1.07381	799.97552	-682.22968	-51.28345	730.51892	-708.84442	-27.04470	612.21948	-691.27716	81.48490	570.58704	-717.82098	-23.15287	567.11969	-668.65619	21.21447	519.48529	-763.74121	-32.78100	488.75455	-766.11884	-4.46223	208.16180	-663.23468	-65.91893	164.24626	-622.29822	-76.72251	159.71306	-559.63025	-39.25422	164.89517	-603.55731	20.61233	165.45195	-716.69165	79.07729	216.00459	-674.89154	57.04079	156.77219	-794.52258	56.08105	175.18394	-637.54321	283.06644	876.35999	-579.39801	217.51398	812.91669	-683.70374	268.16458	716.50885	-725.44885	250.51843	638.84406	-688.32794	145.15802	571.62860	-729.42474	246.60060	575.43915	-675.15295	207.17419	531.51917	-770.49213	254.47961	502.33170	-771.44037	221.70132	205.57336	-667.15417	298.79022	160.31441	-630.12195	305.99246	161.95639	-560.57422	261.07642	166.26474	-594.61835	222.15991	173.54616	-711.33301	151.90161	216.15471	-675.34045	172.25821	157.37521	-796.26367	171.60521	184.52477	-528.04987	304.44241	146.60500	-517.72430	-72.65742	142.87764	-876.05475	-78.53760	141.56773	-882.54883	296.15649	144.69109	
77	1.520	-681.05011	122.14677	1851.54456	-696.35083	-67.24989	1545.90002	-719.57538	292.61444	1536.08972	-618.75079	111.76222	1435.65552	-589.91400	-0.99635	1050.09729	-581.50189	223.71280	1068.58203	-787.33081	98.35012	1057.34436	-651.99585	-66.74511	863.12427	-584.16272	-0.87834	799.93689	-682.15222	-51.25124	730.54773	-708.81879	-27.00263	612.29547	-691.17639	81.53969	570.59174	-717.76892	-23.11319	567.13391	-668.61035	21.24538	519.51453	-763.74677	-32.74422	488.75784	-766.13428	-4.46702	208.14122	-663.26294	-65.93288	164.25479	-622.27386	-76.70579	159.67493	-559.61969	-39.23558	164.90253	-603.54462	20.63876	165.38368	-716.69165	79.07789	216.00627	-674.88556	57.03941	156.82120	-794.51819	56.06469	175.20816	-637.57489	283.12909	876.24701	-579.41156	217.62199	812.91772	-683.73853	268.22586	716.52191	-725.45502	250.55574	638.83502	-688.32556	145.15385	571.64685	-729.42084	246.69220	575.44189	-675.12653	207.26582	531.56421	-770.50208	254.50928	502.34756	-771.43188	221.69545	205.56549	-667.20862	298.84570	160.27275	-630.10382	305.99359	161.97644	-560.56458	261.05865	166.22820	-594.62122	222.17235	173.53848	-711.32349	151.91611	216.17003	-675.32996	172.21471	157.38286	-796.24548	171.63463	184.52823	-528.03851	304.44815	146.59755	-517.72461	-72.60553	142.81828	-876.08881	-78.52811	141.59669	-882.56067	296.17719	144.70221	
78	1.540	-681.00732	122.25216	1851.54089	-696.29193	-67.18354	1545.94397	-719.47156	292.68915	1536.07471	-618.76501	111.82323	1435.55908	-590.21588	-0.67372	1049.88867	-581.48883	223.79843	1068.54163	-787.28418	98.37878	1057.38037	-651.91931	-66.69242	863.10413	-584.03278	-0.69001	799.91333	-682.09827	-51.23809	730.60400	-708.77020	-26.91866	612.35400	-691.05304	81.60855	570.57794	-717.74402	-23.09112	567.15460	-668.57318	21.29380	519.51227	-763.75262	-32.69253	488.76697	-766.14502	-4.46319	208.13567	-663.27979	-65.93283	164.28154	-622.25507	-76.68653	159.65668	-559.61499	-39.21665	164.91533	-603.54083	20.66005	165.35391	-716.67560	79.07736	216.00438	-674.89001	57.03365	156.86057	-794.52759	56.04640	175.22327	-637.64777	283.22522	876.10254	-579.42041	217.70587	812.92560	-683.79395	268.26642	716.53363	-725.44836	250.59671	638.82355	-688.31390	145.16129	571.68268	-729.41107	246.74684	575.44806	-675.12085	207.33740	531.59833	-770.48560	254.51617	502.34946	-771.40735	221.68652	205.56357	-667.26807	298.89868	160.21176	-630.09308	306.01013	162.01567	-560.56708	261.03839	166.20685	-594.62555	222.18422	173.53795	-711.30518	151.92929	216.18990	-675.31537	172.19351	157.39363	-796.23291	171.63699	184.52679	-528.04187	304.47461	146.61726	-517.74207	-72.53673	142.80562	-876.11005	-78.53724	141.60764	-882.55591	296.18698	144.70755	
79	1.560	-680.99762	122.31875	1851.56140	-696.24310	-67.10246	1545.99927	-719.36304	292.75656	1536.07019	-618.80310	111.87807	1435.43945	-590.63800	-0.22333	1049.57581	-581.45294	223.92491	1068.50952	-787.27551	98.45753	1057.44458	-651.82849	-66.62712	863.10553	-583.95514	-0.52966	799.89069	-682.08142	-51.20361	730.63470	-708.69312	-26.81093	612.42609	-690.92041	81.69380	570.55017	-717.73108	-23.06619	567.16492	-668.56476	21.35790	519.45038	-763.75140	-32.64679	488.79272	-766.13025	-4.45751	208.15559	-663.27338	-65.91737	164.30922	-622.25208	-76.67817	159.66396	-559.62244	-39.20396	164.93094	-603.53931	20.65719	165.36885	-716.65131	79.08572	216.00679	-674.89282	57.03148	156.86913	-794.55103	56.03764	175.23662	-637.71472	283.34241	875.97644	-579.43591	217.77995	812.94189	-683.84332	268.28305	716.52216	-725.44531	250.62361	638.81232	-688.28998	145.19630	571.70740	-729.39929	246.77974	575.46155	-675.13342	207.39037	531.61664	-770.45532	254.52510	502.34857	-771.38202	221.67387	205.55757	-667.30878	298.92798	160.16043	-630.09656	306.04037	162.04651	-560.57483	261.04102	166.21030	-594.61633	222.18671	173.55258	-711.29749	151.95049	216.19266	-675.29639	172.20863	157.40840	-796.23041	171.61607	184.52962	-528.05524	304.49792	146.63589	-517.76611	-72.49134	142.83543	-876.10840	-78.55592	141.61372	-882.52539	296.17133	144.70163	
80	1.580	-681.00458	122.35892	1851.59265	-696.20251	-66.98639	1546.04431	-719.27148	292.81299	1536.06812	-618.84888	111.93961	1435.31360	-590.99396	0.20617	1049.27185	-581.41980	224.07559	1068.50305	-787.30701	98.59976	1057.53711	-651.74146	-66.56081	863.11865	-583.94788	-0.40540	799.86371	-682.10461	-51.13757	730.62042	-708.61035	-26.70111	612.52411	-690.80884	81.76764	570.53235	-717.71808	-23.02841	567.16223	-668.57361	21.41912	519.36383	-763.75317	-32.60016	488.82556	-766.08722	-4.45872	208.19276	-663.25745	-65.89583	164.32669	-622.25781	-76.67654	159.69514	-559.63782	-39.19795	164.94070	-603.53027	20.63111	165.41606	-716.64154	79.10782	216.01591	-674.89032	57.03418	156.85304	-794.58313	56.05936	175.24496	-637.75067	283.44519	875.89844	-579.47382	217.86292	812.95959	-683.87708	268.30270	716.47412	-725.45917	250.64725	638.80316	-688.27570	145.25255	571.70416	-729.39404	246.81512	575.46368	-675.15149	207.43503	531.61615	-770.42017	254.55424	502.35617	-771.36652	221.66240	205.54694	-667.32214	298.91794	160.13017	-630.11725	306.07339	162.04750	-560.57275	261.07077	166.21986	-594.59741	222.18442	173.57208	-711.30481	151.98401	216.17491	-675.30060	172.25038	157.41501	-796.22870	171.59373	184.53976	-528.06592	304.49292	146.64163	-517.77881	-72.47536	142.88399	-876.09576	-78.58104	141.62793	-882.48401	296.14581	144.69588	
81	1.600	-681.00220	122.39999	1851.61340	-696.15533	-66.84725	1546.06799	-719.20300	292.86667	1536.07104	-618.88763	112.01061	1435.20593	-591.16681	0.48916	1049.07019	-581.40924	224.23869	1068.51453	-787.36371	98.77165	1057.63879	-651.68658	-66.51579	863.13885	-583.98071	-0.31525	799.84955	-682.15454	-51.05923	730.58734	-708.55322	-26.60863	612.61853	-690.74103	81.81013	570.53284	-717.70251	-22.99250	567.16547	-668.57690	21.46613	519.31036	-763.77008	-32.54003	488.84976	-766.04022	-4.46549	208.22749	-663.24902	-65.88007	164.33324	-622.25970	-76.66957	159.72906	-559.65179	-39.19886	164.93675	-603.51575	20.60723	165.47069	-716.66907	79.12898	216.01535	-674.88635	57.03786	156.83408	-794.61505	56.10890	175.24030	-637.75922	283.52048	875.85614	-579.52380	217.94899	812.96912	-683.90540	268.35263	716.37421	-725.48444	250.69249	638.78766	-688.29352	145.30310	571.69440	-729.39880	246.86412	575.43640	-675.17145	207.47891	531.59241	-770.37836	254.59747	502.36017	-771.36694	221.65829	205.54118	-667.31171	298.86682	160.11658	-630.14380	306.09381	162.02676	-560.56128	261.10800	166.22086	-594.58130	222.18425	173.58287	-711.31293	152.01666	216.15532	-675.34052	172.30219	157.40118	-796.21967	171.58655	184.54916	-528.06750	304.46252	146.64488	-517.76721	-72.47595	142.94283	-876.08105	-78.60466	141.64101	-882.45752	296.14368	144.70494	
